<mxfile host="app.diagrams.net" modified="2023-02-03T06:35:05.998Z" agent="5.0 (Macintosh; Intel Mac OS X 10_15_7) AppleWebKit/537.36 (KHTML, like Gecko) Chrome/109.0.0.0 Safari/537.36" etag="5nC4pb1sMuxFPVmPpmJA" version="20.8.16" type="github">
  <diagram name="페이지-1" id="x8BuUTByIjAVzdChZTSv">
    <mxGraphModel dx="1026" dy="661" grid="1" gridSize="10" guides="1" tooltips="1" connect="1" arrows="1" fold="1" page="1" pageScale="1" pageWidth="827" pageHeight="1169" math="0" shadow="0">
      <root>
        <mxCell id="0" />
        <mxCell id="1" parent="0" />
        <mxCell id="iWSLLe49DcCL48yaKhXw-17" style="edgeStyle=none;rounded=0;orthogonalLoop=1;jettySize=auto;html=1;exitX=1;exitY=0.3333333333333333;exitDx=0;exitDy=0;exitPerimeter=0;entryX=0;entryY=0.5;entryDx=0;entryDy=0;endArrow=none;endFill=0;" edge="1" parent="1" source="iWSLLe49DcCL48yaKhXw-1" target="iWSLLe49DcCL48yaKhXw-6">
          <mxGeometry relative="1" as="geometry" />
        </mxCell>
        <mxCell id="iWSLLe49DcCL48yaKhXw-1" value="이용자" style="shape=umlActor;verticalLabelPosition=bottom;verticalAlign=top;html=1;" vertex="1" parent="1">
          <mxGeometry x="60" y="270" width="30" height="60" as="geometry" />
        </mxCell>
        <mxCell id="iWSLLe49DcCL48yaKhXw-2" value="게시판 서비스" style="shape=umlFrame;whiteSpace=wrap;html=1;width=120;height=30;" vertex="1" parent="1">
          <mxGeometry x="140" y="120" width="516" height="510" as="geometry" />
        </mxCell>
        <mxCell id="iWSLLe49DcCL48yaKhXw-14" style="rounded=0;orthogonalLoop=1;jettySize=auto;html=1;exitX=0;exitY=0.5;exitDx=0;exitDy=0;entryX=1;entryY=0.3333333333333333;entryDx=0;entryDy=0;entryPerimeter=0;endArrow=none;endFill=0;" edge="1" parent="1" source="iWSLLe49DcCL48yaKhXw-3" target="iWSLLe49DcCL48yaKhXw-1">
          <mxGeometry relative="1" as="geometry" />
        </mxCell>
        <mxCell id="iWSLLe49DcCL48yaKhXw-3" value="회원가입" style="rounded=1;whiteSpace=wrap;html=1;arcSize=40;fontColor=#000000;fillColor=#ffffc0;strokeColor=#ff0000;" vertex="1" parent="1">
          <mxGeometry x="250" y="240" width="120" height="40" as="geometry" />
        </mxCell>
        <mxCell id="iWSLLe49DcCL48yaKhXw-16" style="rounded=0;orthogonalLoop=1;jettySize=auto;html=1;exitX=0;exitY=0.5;exitDx=0;exitDy=0;endArrow=none;endFill=0;" edge="1" parent="1" source="iWSLLe49DcCL48yaKhXw-5">
          <mxGeometry relative="1" as="geometry">
            <mxPoint x="90" y="290" as="targetPoint" />
          </mxGeometry>
        </mxCell>
        <mxCell id="iWSLLe49DcCL48yaKhXw-20" value="&amp;lt;&amp;lt;include&amp;gt;&amp;gt;" style="edgeStyle=none;rounded=0;orthogonalLoop=1;jettySize=auto;html=1;exitX=1;exitY=0;exitDx=0;exitDy=0;entryX=0.5;entryY=1;entryDx=0;entryDy=0;dashed=1;endArrow=classic;endFill=1;" edge="1" parent="1" source="iWSLLe49DcCL48yaKhXw-5" target="iWSLLe49DcCL48yaKhXw-7">
          <mxGeometry relative="1" as="geometry" />
        </mxCell>
        <mxCell id="iWSLLe49DcCL48yaKhXw-5" value="자유 게시판 보기" style="rounded=1;whiteSpace=wrap;html=1;arcSize=40;fontColor=#000000;fillColor=#ffffc0;strokeColor=#ff0000;" vertex="1" parent="1">
          <mxGeometry x="190" y="350" width="120" height="40" as="geometry" />
        </mxCell>
        <mxCell id="iWSLLe49DcCL48yaKhXw-21" value="&amp;lt;&amp;lt;include&amp;gt;&amp;gt;" style="edgeStyle=none;rounded=0;orthogonalLoop=1;jettySize=auto;html=1;exitX=1;exitY=0.5;exitDx=0;exitDy=0;dashed=1;endArrow=classic;endFill=1;entryX=0.5;entryY=1;entryDx=0;entryDy=0;" edge="1" parent="1" source="iWSLLe49DcCL48yaKhXw-6" target="iWSLLe49DcCL48yaKhXw-7">
          <mxGeometry relative="1" as="geometry">
            <mxPoint x="350" y="210" as="targetPoint" />
          </mxGeometry>
        </mxCell>
        <mxCell id="iWSLLe49DcCL48yaKhXw-6" value="자유게시판 게시글 보기" style="rounded=1;whiteSpace=wrap;html=1;arcSize=40;fontColor=#000000;fillColor=#ffffc0;strokeColor=#ff0000;" vertex="1" parent="1">
          <mxGeometry x="190" y="430" width="120" height="40" as="geometry" />
        </mxCell>
        <mxCell id="iWSLLe49DcCL48yaKhXw-15" style="rounded=0;orthogonalLoop=1;jettySize=auto;html=1;exitX=0;exitY=0.5;exitDx=0;exitDy=0;endArrow=none;endFill=0;" edge="1" parent="1" source="iWSLLe49DcCL48yaKhXw-7">
          <mxGeometry relative="1" as="geometry">
            <mxPoint x="90" y="290" as="targetPoint" />
          </mxGeometry>
        </mxCell>
        <mxCell id="iWSLLe49DcCL48yaKhXw-18" value="&amp;lt;&amp;lt;include&amp;gt;&amp;gt;" style="edgeStyle=none;rounded=0;orthogonalLoop=1;jettySize=auto;html=1;exitX=1;exitY=0.5;exitDx=0;exitDy=0;entryX=0;entryY=0.5;entryDx=0;entryDy=0;endArrow=block;endFill=1;dashed=1;" edge="1" parent="1" source="iWSLLe49DcCL48yaKhXw-7" target="iWSLLe49DcCL48yaKhXw-8">
          <mxGeometry relative="1" as="geometry" />
        </mxCell>
        <mxCell id="iWSLLe49DcCL48yaKhXw-7" value="회원 로그인" style="rounded=1;whiteSpace=wrap;html=1;arcSize=40;fontColor=#000000;fillColor=#ffffc0;strokeColor=#ff0000;" vertex="1" parent="1">
          <mxGeometry x="290" y="160" width="120" height="40" as="geometry" />
        </mxCell>
        <mxCell id="iWSLLe49DcCL48yaKhXw-8" value="인증" style="rounded=1;whiteSpace=wrap;html=1;arcSize=40;fontColor=#000000;fillColor=#ffffc0;strokeColor=#ff0000;" vertex="1" parent="1">
          <mxGeometry x="520" y="150" width="120" height="40" as="geometry" />
        </mxCell>
        <mxCell id="iWSLLe49DcCL48yaKhXw-19" value="&amp;lt;&amp;lt;extend&amp;gt;&amp;gt;" style="edgeStyle=none;rounded=0;orthogonalLoop=1;jettySize=auto;html=1;exitX=0;exitY=0.5;exitDx=0;exitDy=0;endArrow=classic;endFill=1;dashed=1;" edge="1" parent="1" source="iWSLLe49DcCL48yaKhXw-9">
          <mxGeometry relative="1" as="geometry">
            <mxPoint x="410" y="180" as="targetPoint" />
          </mxGeometry>
        </mxCell>
        <mxCell id="iWSLLe49DcCL48yaKhXw-9" value="로그인 실패" style="rounded=1;whiteSpace=wrap;html=1;arcSize=40;fontColor=#000000;fillColor=#ffffc0;strokeColor=#ff0000;" vertex="1" parent="1">
          <mxGeometry x="520" y="230" width="120" height="40" as="geometry" />
        </mxCell>
        <mxCell id="iWSLLe49DcCL48yaKhXw-22" style="edgeStyle=none;rounded=0;orthogonalLoop=1;jettySize=auto;html=1;exitX=0;exitY=0.5;exitDx=0;exitDy=0;entryX=1;entryY=0.5;entryDx=0;entryDy=0;dashed=1;endArrow=classic;endFill=1;" edge="1" parent="1" source="iWSLLe49DcCL48yaKhXw-10" target="iWSLLe49DcCL48yaKhXw-5">
          <mxGeometry relative="1" as="geometry" />
        </mxCell>
        <mxCell id="iWSLLe49DcCL48yaKhXw-10" value="자유 게시판 정렬하기" style="rounded=1;whiteSpace=wrap;html=1;arcSize=40;fontColor=#000000;fillColor=#ffffc0;strokeColor=#ff0000;" vertex="1" parent="1">
          <mxGeometry x="354" y="350" width="120" height="40" as="geometry" />
        </mxCell>
        <mxCell id="iWSLLe49DcCL48yaKhXw-23" style="edgeStyle=none;rounded=0;orthogonalLoop=1;jettySize=auto;html=1;exitX=0;exitY=0.5;exitDx=0;exitDy=0;dashed=1;endArrow=classic;endFill=1;" edge="1" parent="1" source="iWSLLe49DcCL48yaKhXw-11">
          <mxGeometry relative="1" as="geometry">
            <mxPoint x="310" y="370" as="targetPoint" />
          </mxGeometry>
        </mxCell>
        <mxCell id="iWSLLe49DcCL48yaKhXw-11" value="자유게시판 검색" style="rounded=1;whiteSpace=wrap;html=1;arcSize=40;fontColor=#000000;fillColor=#ffffc0;strokeColor=#ff0000;" vertex="1" parent="1">
          <mxGeometry x="354" y="400" width="120" height="40" as="geometry" />
        </mxCell>
        <mxCell id="iWSLLe49DcCL48yaKhXw-12" value="자유게시판 게시글&lt;br&gt;쓰기,수정,삭제" style="rounded=1;whiteSpace=wrap;html=1;arcSize=40;fontColor=#000000;fillColor=#ffffc0;strokeColor=#ff0000;" vertex="1" parent="1">
          <mxGeometry x="354" y="490" width="120" height="40" as="geometry" />
        </mxCell>
        <mxCell id="iWSLLe49DcCL48yaKhXw-13" value="자유게시판 댓글 보기,쓰기, 수정, 삭제" style="rounded=1;whiteSpace=wrap;html=1;arcSize=40;fontColor=#000000;fillColor=#ffffc0;strokeColor=#ff0000;" vertex="1" parent="1">
          <mxGeometry x="354" y="550" width="120" height="40" as="geometry" />
        </mxCell>
      </root>
    </mxGraphModel>
  </diagram>
</mxfile>
